<?xml version="1.0" encoding="UTF-8"?>
<!DOCTYPE svg PUBLIC "-//W3C//DTD SVG 1.1//EN" "http://www.w3.org/Graphics/SVG/1.1/DTD/svg11.dtd">
<svg version="1.1" xmlns="http://www.w3.org/2000/svg" xmlns:xlink="http://www.w3.org/1999/xlink" x="0px" y="0px" width="10" height="10" viewBox="0, 0, 10, 10">
  <g id="Layer 1">
    <path d="M1,0 L5,0 L9,4 L9,10 L1,10 z" fill="url(#Gradient_1)"/>
    <path d="M2,1 L5.5,1 L8,3.5 L8,9 L2,9 z" fill="url(#Gradient_2)"/>
    <path d="M5,4 L5,0 C5,0 6,0 6.5,0.5 C7,1 8,2 8.5,2.5 C9,3 9,4 9,4 z" fill="#8C8C8C"/>
    <path d="M6,3 C6,3 6,1.328 6,1.328 C6,1.328 7.672,3 7.672,3 C7.672,3 6,3 6,3 z" fill="#FFFFFF"/>
  </g>
  <defs>
    <linearGradient id="Gradient_1" gradientUnits="userSpaceOnUse" x1="3" y1="9.33" x2="7" y2="0.67">
      <stop offset="0" stop-color="#737373"/>
      <stop offset="0.703" stop-color="#8C8C8C"/>
    </linearGradient>
    <linearGradient id="Gradient_2" gradientUnits="userSpaceOnUse" x1="5" y1="9" x2="5" y2="1">
      <stop offset="0" stop-color="#D9D9D9"/>
      <stop offset="1" stop-color="#FFFFFF"/>
    </linearGradient>
  </defs>
</svg>
